<svg width="151" height="140" viewBox="0 0 151 140" fill="none" xmlns="http://www.w3.org/2000/svg">
<g id="Group 1000002094">
<path id="Rectangle 957" d="M136.729 37.9444C134.644 25.6164 123.966 16.5932 111.463 16.5932H42.6858C30.2328 16.5932 20.6563 27.605 22.3841 39.9376L35.5936 134.22H136.842C145.3 134.22 151.728 126.615 150.317 118.274L136.729 37.9444Z" fill="url(#paint0_linear_21182_5053)"/>
<path id="Rectangle 956" d="M15.7098 34.2488C17.1282 24.1249 25.7887 16.5932 36.0115 16.5932H112.032C124.485 16.5932 134.062 27.605 132.334 39.9376L121.598 116.565C120.179 126.689 111.519 134.22 101.296 134.22H25.2757C12.8227 134.22 3.24613 123.209 4.97398 110.876L15.7098 34.2488Z" fill="url(#paint1_linear_21182_5053)"/>
<path id="Subtract" fill-rule="evenodd" clip-rule="evenodd" d="M35.8556 16.5932C25.6354 16.5932 16.9764 24.121 15.5549 34.2418L14.325 42.998H132.04L132.469 39.9445C134.202 27.6098 124.624 16.5932 112.169 16.5932H35.8556Z" fill="url(#paint2_linear_21182_5053)"/>
<ellipse id="Ellipse 394" cx="96.2536" cy="29.7093" rx="5.1879" ry="6.38117" transform="rotate(12.6333 96.2536 29.7093)" fill="#4B5259"/>
<ellipse id="Ellipse 395" cx="41.464" cy="29.7093" rx="5.1879" ry="6.38117" transform="rotate(12.6333 41.464 29.7093)" fill="#4B5259"/>
<ellipse id="Ellipse 397" cx="10.6674" cy="12.8673" rx="10.6674" ry="12.8673" transform="matrix(-0.907478 -0.420099 -0.420099 0.907478 50.2788 60.2007)" fill="white"/>
<ellipse id="Ellipse 398" cx="10.6674" cy="12.8673" rx="10.6674" ry="12.8673" transform="matrix(-0.907478 -0.420099 -0.420099 0.907478 45.542 92.5173)" fill="white"/>
<ellipse id="Ellipse 396" cx="10.6674" cy="12.8673" rx="10.6674" ry="12.8673" transform="matrix(-0.907478 -0.420099 -0.420099 0.907478 82.5059 60.2007)" fill="white"/>
<ellipse id="Ellipse 399" cx="10.6674" cy="12.8673" rx="10.6674" ry="12.8673" transform="matrix(-0.907478 -0.420099 -0.420099 0.907478 77.769 92.5173)" fill="white"/>
<ellipse id="Ellipse 388" cx="10.6674" cy="12.8673" rx="10.6674" ry="12.8673" transform="matrix(-0.907478 -0.420099 -0.420099 0.907478 114.732 60.2007)" fill="url(#paint3_linear_21182_5053)"/>
<path id="Vector 976 (Stroke)" fill-rule="evenodd" clip-rule="evenodd" d="M106.165 62.146C106.904 62.9141 106.88 64.1357 106.112 64.8745L97.9784 72.6991C97.5535 73.1079 96.965 73.3 96.3807 73.2206C95.7965 73.1412 95.2806 72.799 94.9801 72.2917L92.8594 68.7102C92.3164 67.7931 92.6196 66.6095 93.5366 66.0665C94.4537 65.5235 95.6373 65.8267 96.1803 66.7438L97.0592 68.228L103.436 62.0932C104.204 61.3543 105.426 61.378 106.165 62.146Z" fill="white"/>
<ellipse id="Ellipse 400" cx="10.6674" cy="12.8673" rx="10.6674" ry="12.8673" transform="matrix(-0.907478 -0.420099 -0.420099 0.907478 109.996 92.5173)" fill="white"/>
<path id="Ellipse 393 (Stroke)" fill-rule="evenodd" clip-rule="evenodd" d="M103.699 2.0184C100.889 0.80903 97.7892 0.490534 94.7976 1.1088C91.8068 1.72687 89.0765 3.24921 86.9451 5.46371C84.8148 7.67695 83.3767 10.4827 82.7952 13.5202C82.2137 16.5573 82.5112 19.7065 83.6545 22.5742C84.7982 25.4428 86.7424 27.9137 89.2594 29.661C91.778 31.4094 94.752 32.3505 97.805 32.3505H100.855C101.774 30.1292 101.694 27.7686 100.855 26.1463H97.805C96.0331 26.1463 94.2907 25.601 92.7975 24.5644C91.3028 23.5268 90.1203 22.0392 89.4176 20.2766C88.7145 18.5131 88.5289 16.5662 88.8887 14.6868C89.2485 12.8079 90.1337 11.0975 91.4151 9.76617C92.6954 8.43609 94.3118 7.54454 96.0532 7.18466C97.7937 6.82497 99.5991 7.00839 101.246 7.71734C102.895 8.42692 104.324 9.63704 105.338 11.2133C106.352 12.7907 106.9 14.6572 106.9 16.5758H113.104C113.104 13.4817 112.222 10.4479 110.556 7.85731C108.889 5.26557 106.508 3.22714 103.699 2.0184Z" fill="url(#paint4_linear_21182_5053)"/>
<path id="Ellipse 393 (Stroke)_2" fill-rule="evenodd" clip-rule="evenodd" d="M48.9094 2.0184C46.0992 0.80903 42.9997 0.490534 40.008 1.1088C37.0173 1.72687 34.287 3.24921 32.1555 5.46371C30.0253 7.67695 28.5871 10.4827 28.0056 13.5202C27.4241 16.5573 27.7216 19.7065 28.8649 22.5742C30.0086 25.4428 31.9529 27.9137 34.4699 29.661C36.9884 31.4094 39.9625 32.3505 43.0154 32.3505H46.0652C46.9841 30.1292 46.9049 27.7686 46.0652 26.1463H43.0154C41.2435 26.1463 39.5011 25.601 38.0079 24.5644C36.5132 23.5268 35.3308 22.0392 34.6281 20.2766C33.925 18.5131 33.7394 16.5662 34.0992 14.6868C34.4589 12.8079 35.3442 11.0975 36.6256 9.76617C37.9058 8.43609 39.5223 7.54454 41.2637 7.18466C43.0041 6.82497 44.8095 7.00839 46.4569 7.71734C48.1057 8.42692 49.5343 9.63704 50.5481 11.2133C51.5625 12.7907 52.1107 14.6572 52.1107 16.5758H58.3149C58.3149 13.4817 57.4324 10.4479 55.7663 7.85731C54.0995 5.26557 51.7181 3.22714 48.9094 2.0184Z" fill="url(#paint5_linear_21182_5053)"/>
<g id="Group 13 Copy">
<g id="Group 1000002093">
<path id="Vector 974 (Stroke)" fill-rule="evenodd" clip-rule="evenodd" d="M37.7748 124.864C39.3505 124.13 41.2227 124.813 41.9566 126.388L46.153 135.398C46.8869 136.974 46.2045 138.846 44.6288 139.58C43.0531 140.314 41.1809 139.632 40.447 138.056L36.2506 129.046C35.5167 127.47 36.1991 125.598 37.7748 124.864Z" fill="url(#paint6_linear_21182_5053)"/>
<path id="Vector 975 (Stroke)" fill-rule="evenodd" clip-rule="evenodd" d="M19.8131 124.864C18.2374 124.13 16.3652 124.813 15.6313 126.388L11.4349 135.398C10.701 136.974 11.3834 138.846 12.9591 139.58C14.5348 140.314 16.407 139.632 17.1409 138.056L21.3373 129.046C22.0712 127.47 21.3888 125.598 19.8131 124.864Z" fill="url(#paint7_linear_21182_5053)"/>
</g>
<g id="Group 11">
<path id="Fill 1" fill-rule="evenodd" clip-rule="evenodd" d="M3.69336 105.028C3.69336 119.214 15.1934 130.716 29.3815 130.716C43.5697 130.716 55.0697 119.214 55.0697 105.028C55.0697 90.8397 43.5697 79.3397 29.3815 79.3397C15.1934 79.3397 3.69336 90.8397 3.69336 105.028Z" fill="white"/>
<path id="Indicator (Stroke)" fill-rule="evenodd" clip-rule="evenodd" d="M28.7934 93.5396C30.354 93.5396 31.6191 94.8046 31.6191 96.3652V104.412L35.2565 108.05C36.36 109.153 36.36 110.942 35.2565 112.046C34.1531 113.149 32.364 113.149 31.2605 112.046L26.7954 107.58C26.2655 107.051 25.9678 106.332 25.9678 105.582V96.3652C25.9678 94.8046 27.2329 93.5396 28.7934 93.5396Z" fill="url(#paint8_linear_21182_5053)"/>
<path id="Stroke 3" fill-rule="evenodd" clip-rule="evenodd" d="M29.2017 75.9142C13.1218 75.9142 0.0883789 88.9477 0.0883789 105.028C0.0883789 121.106 13.1224 134.141 29.2017 134.141C45.2809 134.141 58.3149 121.106 58.3149 105.028C58.3149 88.9477 45.2815 75.9142 29.2017 75.9142ZM29.2017 82.7644C41.4982 82.7644 51.4647 92.731 51.4647 105.028C51.4647 117.323 41.4975 127.291 29.2017 127.291C16.9058 127.291 6.93856 117.323 6.93856 105.028C6.93856 92.731 16.9051 82.7644 29.2017 82.7644Z" fill="url(#paint9_linear_21182_5053)"/>
</g>
</g>
</g>
<defs>
<linearGradient id="paint0_linear_21182_5053" x1="122.103" y1="98.6407" x2="154.311" y2="126.35" gradientUnits="userSpaceOnUse">
<stop stop-color="#939CA4"/>
<stop offset="1" stop-color="#D8DDE1"/>
</linearGradient>
<linearGradient id="paint1_linear_21182_5053" x1="60.8555" y1="147.154" x2="118.279" y2="42.9702" gradientUnits="userSpaceOnUse">
<stop stop-color="#D6DBDF"/>
<stop offset="1" stop-color="white"/>
</linearGradient>
<linearGradient id="paint2_linear_21182_5053" x1="73.4987" y1="16.5932" x2="73.4987" y2="42.998" gradientUnits="userSpaceOnUse">
<stop stop-color="#FFD36D"/>
<stop offset="1" stop-color="#FFB300"/>
</linearGradient>
<linearGradient id="paint3_linear_21182_5053" x1="10.6674" y1="0" x2="10.6674" y2="25.7347" gradientUnits="userSpaceOnUse">
<stop stop-color="#FFD36D"/>
<stop offset="1" stop-color="#FFB300"/>
</linearGradient>
<linearGradient id="paint4_linear_21182_5053" x1="96.163" y1="0.801086" x2="101.022" y2="32.3268" gradientUnits="userSpaceOnUse">
<stop stop-color="#F7F8F9"/>
<stop offset="1" stop-color="#858F97"/>
</linearGradient>
<linearGradient id="paint5_linear_21182_5053" x1="41.3734" y1="0.801086" x2="46.232" y2="32.3268" gradientUnits="userSpaceOnUse">
<stop stop-color="#F7F8F9"/>
<stop offset="1" stop-color="#858F97"/>
</linearGradient>
<linearGradient id="paint6_linear_21182_5053" x1="41.2018" y1="127.717" x2="36.9863" y2="127.846" gradientUnits="userSpaceOnUse">
<stop stop-color="#FFD36D"/>
<stop offset="1" stop-color="#FFB300"/>
</linearGradient>
<linearGradient id="paint7_linear_21182_5053" x1="16.3861" y1="127.717" x2="20.6016" y2="127.846" gradientUnits="userSpaceOnUse">
<stop stop-color="#FFD36D"/>
<stop offset="1" stop-color="#FFB300"/>
</linearGradient>
<linearGradient id="paint8_linear_21182_5053" x1="31.026" y1="93.5396" x2="31.026" y2="112.873" gradientUnits="userSpaceOnUse">
<stop stop-color="#FFD36D"/>
<stop offset="1" stop-color="#FFB300"/>
</linearGradient>
<linearGradient id="paint9_linear_21182_5053" x1="38.9494" y1="89.0898" x2="-5.41989" y2="142.483" gradientUnits="userSpaceOnUse">
<stop stop-color="#959EA6"/>
<stop offset="1" stop-color="white"/>
</linearGradient>
</defs>
</svg>
