<svg width="132" height="111" viewBox="0 0 132 111" fill="none" xmlns="http://www.w3.org/2000/svg">
<path fill-rule="evenodd" clip-rule="evenodd" d="M0.0315094 29.579C0.0315094 27.8109 1.65926 26.377 3.66811 26.377L128.327 26.377C130.335 26.377 131.964 27.8109 131.964 29.579L131.964 106.817C131.964 108.585 130.335 110.019 128.327 110.019L3.66811 110.019C1.65926 110.019 0.0315094 108.585 0.0315094 106.817L0.0315094 29.579Z" fill="url(#paint0_linear_6181_21698)"/>
<g opacity="0.257464">
<path opacity="0.257464" fill-rule="evenodd" clip-rule="evenodd" d="M54.6609 94.9481L12.9796 94.9481C11.9323 94.9481 11.085 94.1007 11.085 93.0534L11.085 83.5808C11.085 78.3572 15.3347 74.1074 20.5583 74.1074L47.0822 74.1074C52.3059 74.1074 56.5549 78.3572 56.5549 83.5808L56.5549 93.0534C56.5549 94.1007 55.7076 94.9481 54.6609 94.9481Z" fill="url(#paint1_linear_6181_21698)"/>
<path opacity="0.257464" fill-rule="evenodd" clip-rule="evenodd" d="M33.8204 72.2131C27.5516 72.2131 22.4531 67.1139 22.4531 60.8458C22.4531 54.577 27.5516 49.4785 33.8204 49.4785C40.0885 49.4785 45.1884 54.577 45.1884 60.8458C45.1884 67.1139 40.0885 72.2131 33.8204 72.2131Z" fill="url(#paint2_linear_6181_21698)"/>
</g>
<path fill-rule="evenodd" clip-rule="evenodd" d="M56.116 95.6756L14.4347 95.6756C13.3874 95.6756 12.54 94.8283 12.54 93.781L12.54 84.3083C12.54 79.0847 16.7898 74.835 22.0134 74.835L48.5373 74.835C53.7609 74.835 58.01 79.0847 58.01 84.3083L58.01 93.781C58.01 94.8283 57.1626 95.6756 56.116 95.6756Z" fill="url(#paint3_linear_6181_21698)"/>
<path fill-rule="evenodd" clip-rule="evenodd" d="M35.2755 72.9407C29.0067 72.9407 23.9082 67.8414 23.9082 61.5734C23.9082 55.3046 29.0067 50.2061 35.2755 50.2061C41.5435 50.2061 46.6435 55.3046 46.6435 61.5734C46.6435 67.8414 41.5435 72.9407 35.2755 72.9407Z" fill="url(#paint4_linear_6181_21698)"/>
<path fill-rule="evenodd" clip-rule="evenodd" d="M119.26 64.3302L69.525 64.3302C69.2002 64.3302 68.9365 64.0383 68.9365 63.6787V60.6178C68.9365 60.2582 69.2002 59.9663 69.525 59.9663L119.26 59.9663C119.586 59.9663 119.849 60.2582 119.849 60.6178V63.6787C119.849 64.0383 119.586 64.3302 119.26 64.3302Z" fill="url(#paint5_linear_6181_21698)"/>
<path fill-rule="evenodd" clip-rule="evenodd" d="M119.26 75.2399L69.525 75.2399C69.2002 75.2399 68.9365 74.948 68.9365 74.5884V71.5275C68.9365 71.1679 69.2002 70.876 69.525 70.876L119.26 70.876C119.586 70.876 119.849 71.1679 119.849 71.5275V74.5884C119.849 74.948 119.586 75.2399 119.26 75.2399Z" fill="url(#paint6_linear_6181_21698)"/>
<path fill-rule="evenodd" clip-rule="evenodd" d="M119.26 86.1501L69.525 86.1501C69.2002 86.1501 68.9365 85.8582 68.9365 85.4985V82.4377C68.9365 82.078 69.2002 81.7861 69.525 81.7861L119.26 81.7861C119.586 81.7861 119.849 82.078 119.849 82.4377V85.4985C119.849 85.8582 119.586 86.1501 119.26 86.1501Z" fill="url(#paint7_linear_6181_21698)"/>
<path fill-rule="evenodd" clip-rule="evenodd" d="M76.9071 37.5069L53.6328 37.5069L53.6328 1.84503C53.6328 1.05415 54.3654 0.413574 55.2681 0.413574L75.2718 0.413574C76.1745 0.413574 76.9071 1.05415 76.9071 1.84503L76.9071 37.5069Z" fill="url(#paint8_linear_6181_21698)"/>
<path fill-rule="evenodd" clip-rule="evenodd" d="M83.7468 39.6888L47.1988 39.6888C46.8476 39.6888 46.5625 39.3092 46.5625 38.8415V38.3541C46.5625 37.8864 46.8476 37.5068 47.1988 37.5068L83.7468 37.5068C84.0981 37.5068 84.3832 37.8864 84.3832 38.3541V38.8415C84.3832 39.3092 84.0981 39.6888 83.7468 39.6888Z" fill="url(#paint9_linear_6181_21698)"/>
<path fill-rule="evenodd" clip-rule="evenodd" d="M70.725 10.2326C70.725 13.4465 68.1203 16.0512 64.9065 16.0512C61.6926 16.0512 59.0879 13.4465 59.0879 10.2326C59.0879 7.01876 61.6926 4.41406 64.9065 4.41406C68.1203 4.41406 70.725 7.01876 70.725 10.2326Z" fill="url(#paint10_linear_6181_21698)"/>
<defs>
<linearGradient id="paint0_linear_6181_21698" x1="-6.50736" y1="46.9334" x2="112.777" y2="136.633" gradientUnits="userSpaceOnUse">
<stop stop-color="#BEC6CC"/>
<stop offset="1" stop-color="white"/>
</linearGradient>
<linearGradient id="paint1_linear_6181_21698" x1="-5.29756" y1="84.5277" x2="-2.21471" y2="128.928" gradientUnits="userSpaceOnUse">
<stop stop-color="#BEC6CC"/>
<stop offset="1" stop-color="white"/>
</linearGradient>
<linearGradient id="paint2_linear_6181_21698" x1="14.2617" y1="60.8458" x2="21.4689" y2="287.305" gradientUnits="userSpaceOnUse">
<stop stop-color="#BEC6CC"/>
<stop offset="1" stop-color="white"/>
</linearGradient>
<linearGradient id="paint3_linear_6181_21698" x1="76.4404" y1="75.9541" x2="58.7132" y2="99.1774" gradientUnits="userSpaceOnUse">
<stop stop-color="#BEC6CC"/>
<stop offset="1" stop-color="white"/>
</linearGradient>
<linearGradient id="paint4_linear_6181_21698" x1="55.808" y1="30.0442" x2="33.4322" y2="53.5419" gradientUnits="userSpaceOnUse">
<stop stop-color="#BEC6CC"/>
<stop offset="1" stop-color="white"/>
</linearGradient>
<linearGradient id="paint5_linear_6181_21698" x1="130.974" y1="61.5352" x2="130.873" y2="62.7901" gradientUnits="userSpaceOnUse">
<stop stop-color="#BEC6CC"/>
<stop offset="1" stop-color="white"/>
</linearGradient>
<linearGradient id="paint6_linear_6181_21698" x1="130.974" y1="72.4449" x2="130.872" y2="73.6997" gradientUnits="userSpaceOnUse">
<stop stop-color="#BEC6CC"/>
<stop offset="1" stop-color="white"/>
</linearGradient>
<linearGradient id="paint7_linear_6181_21698" x1="130.974" y1="83.3551" x2="130.873" y2="84.6099" gradientUnits="userSpaceOnUse">
<stop stop-color="#BEC6CC"/>
<stop offset="1" stop-color="white"/>
</linearGradient>
<linearGradient id="paint8_linear_6181_21698" x1="62.6602" y1="25.6674" x2="49.5841" y2="-6.56619" gradientUnits="userSpaceOnUse">
<stop stop-color="#FDB713"/>
<stop offset="1" stop-color="white"/>
</linearGradient>
<linearGradient id="paint9_linear_6181_21698" x1="49.1408" y1="38.5032" x2="49.1799" y2="38.9894" gradientUnits="userSpaceOnUse">
<stop stop-color="#BEC6CC"/>
<stop offset="1" stop-color="white"/>
</linearGradient>
<linearGradient id="paint10_linear_6181_21698" x1="44.9063" y1="-5.8251" x2="65.9774" y2="12.6364" gradientUnits="userSpaceOnUse">
<stop stop-color="#FDB713"/>
<stop offset="1" stop-color="white"/>
</linearGradient>
</defs>
</svg>
