<svg width="240" height="137" viewBox="0 0 240 137" fill="none" xmlns="http://www.w3.org/2000/svg">
<path fill-rule="evenodd" clip-rule="evenodd" d="M207.346 136.668H5.82024C2.60601 136.668 0 133.794 0 130.248V43.5773C0 40.0318 2.60601 37.1572 5.82024 37.1572H207.346C210.56 37.1572 213.166 40.0318 213.166 43.5773V130.248C213.166 133.794 210.56 136.668 207.346 136.668Z" fill="url(#paint0_linear_6751_1619)"/>
<mask id="mask0_6751_1619" style="mask-type:alpha" maskUnits="userSpaceOnUse" x="5" y="1" width="234" height="130">
<path d="M217.391 1.32882L178.349 8.2129C178.377 8.3367 178.412 8.45681 178.434 8.58303C179.27 13.3263 176.104 17.8497 171.36 18.6862C166.616 19.5227 162.093 16.3551 161.256 11.6119C161.234 11.4857 161.226 11.3608 161.209 11.2352L10.5139 37.8068C7.21427 38.3886 5.01077 41.5356 5.59258 44.8351L19.815 125.495C20.3969 128.794 23.5438 130.998 26.8434 130.416L177.539 103.844C176.93 99.2404 180.042 94.9322 184.66 94.1179C189.278 93.3037 193.676 96.2877 194.679 100.822L233.72 93.938C237.02 93.3562 239.223 90.2093 238.642 86.9097L224.419 6.2501C223.837 2.95052 220.69 0.747017 217.391 1.32882Z" fill="white"/>
</mask>
<g mask="url(#mask0_6751_1619)">
<path d="M217.391 1.32882L178.349 8.2129C178.377 8.3367 178.412 8.45681 178.434 8.58303C179.27 13.3263 176.104 17.8497 171.36 18.6862C166.616 19.5227 162.093 16.3551 161.256 11.6119C161.234 11.4857 161.226 11.3608 161.209 11.2352L10.5139 37.8068C7.21427 38.3886 5.01077 41.5356 5.59258 44.8351L19.815 125.495C20.3969 128.794 23.5438 130.998 26.8434 130.416L177.539 103.844C176.93 99.2404 180.042 94.9322 184.66 94.1179C189.278 93.3037 193.676 96.2877 194.679 100.822L233.72 93.938C237.02 93.3562 239.223 90.2093 238.642 86.9097L224.419 6.2501C223.837 2.95052 220.69 0.747017 217.391 1.32882Z" fill="url(#paint1_linear_6751_1619)"/>
<path opacity="0.467913" d="M223.366 0.275309L4.53906 38.8604L7.96299 58.2784L226.79 19.6934L223.366 0.275309Z" fill="url(#paint2_linear_6751_1619)"/>
</g>
<path fill-rule="evenodd" clip-rule="evenodd" d="M185.408 87.4401C185.59 88.4715 184.902 89.4546 183.87 89.6365C182.839 89.8183 181.856 89.13 181.674 88.0986C181.492 87.0672 182.18 86.0841 183.212 85.9022C184.243 85.7204 185.226 86.4087 185.408 87.4401Z" fill="url(#paint3_linear_6751_1619)"/>
<path opacity="0.608515" fill-rule="evenodd" clip-rule="evenodd" d="M174.346 24.7048C174.528 25.7362 173.84 26.7192 172.808 26.9011C171.777 27.083 170.794 26.3946 170.612 25.3632C170.43 24.3318 171.118 23.3487 172.15 23.1669C173.181 22.985 174.164 23.6734 174.346 24.7048Z" fill="url(#paint4_linear_6751_1619)"/>
<path fill-rule="evenodd" clip-rule="evenodd" d="M175.729 32.5475C175.911 33.5789 175.222 34.562 174.191 34.7439C173.16 34.9257 172.177 34.2374 171.995 33.206C171.813 32.1746 172.501 31.1915 173.533 31.0096C174.564 30.8278 175.547 31.5161 175.729 32.5475Z" fill="url(#paint5_linear_6751_1619)"/>
<path fill-rule="evenodd" clip-rule="evenodd" d="M177.112 40.3893C177.294 41.4207 176.605 42.4038 175.574 42.5857C174.543 42.7675 173.559 42.0792 173.378 41.0478C173.196 40.0164 173.884 39.0333 174.915 38.8514C175.947 38.6696 176.93 39.3579 177.112 40.3893Z" fill="url(#paint6_linear_6751_1619)"/>
<path fill-rule="evenodd" clip-rule="evenodd" d="M178.494 48.2311C178.676 49.2625 177.988 50.2456 176.956 50.4275C175.925 50.6093 174.942 49.921 174.76 48.8896C174.578 47.8582 175.266 46.8751 176.298 46.6932C177.329 46.5114 178.312 47.1997 178.494 48.2311Z" fill="url(#paint7_linear_6751_1619)"/>
<path fill-rule="evenodd" clip-rule="evenodd" d="M179.877 56.0729C180.059 57.1043 179.37 58.0874 178.339 58.2693C177.308 58.4511 176.325 57.7628 176.143 56.7314C175.961 55.7 176.649 54.7169 177.681 54.535C178.712 54.3532 179.695 55.0415 179.877 56.0729Z" fill="url(#paint8_linear_6751_1619)"/>
<path fill-rule="evenodd" clip-rule="evenodd" d="M181.26 63.9147C181.442 64.9461 180.753 65.9292 179.722 66.1111C178.69 66.2929 177.707 65.6046 177.526 64.5732C177.344 63.5418 178.032 62.5587 179.063 62.3768C180.095 62.195 181.078 62.8833 181.26 63.9147Z" fill="url(#paint9_linear_6751_1619)"/>
<path fill-rule="evenodd" clip-rule="evenodd" d="M182.643 71.7565C182.824 72.7879 182.136 73.771 181.105 73.9529C180.073 74.1347 179.09 73.4464 178.908 72.415C178.726 71.3836 179.415 70.4005 180.446 70.2186C181.478 70.0368 182.461 70.7251 182.643 71.7565Z" fill="url(#paint10_linear_6751_1619)"/>
<path fill-rule="evenodd" clip-rule="evenodd" d="M184.025 79.5983C184.207 80.6297 183.519 81.6128 182.487 81.7947C181.456 81.9765 180.473 81.2882 180.291 80.2568C180.109 79.2254 180.798 78.2423 181.829 78.0604C182.86 77.8786 183.844 78.5669 184.025 79.5983Z" fill="url(#paint11_linear_6751_1619)"/>
<path opacity="0.5" d="M217.036 29.8841L186.415 35.2834C186.002 35.3561 185.727 35.7494 185.8 36.1619L186.063 37.6556C186.136 38.0681 186.529 38.3435 186.942 38.2707L217.562 32.8715C217.975 32.7987 218.25 32.4054 218.177 31.9929L217.914 30.4992C217.841 30.0868 217.448 29.8113 217.036 29.8841Z" fill="url(#paint12_linear_6751_1619)"/>
<path opacity="0.5" d="M155.255 52.0442L124.634 57.4435C124.222 57.5162 123.946 57.9096 124.019 58.322L124.282 59.8157C124.355 60.2282 124.748 60.5036 125.161 60.4309L155.782 55.0316C156.194 54.9589 156.469 54.5656 156.397 54.1531L156.133 52.6594C156.061 52.2469 155.667 51.9715 155.255 52.0442Z" fill="url(#paint13_linear_6751_1619)"/>
<path opacity="0.221842" d="M217.214 9.06084L186.594 14.4601C186.181 14.5328 185.906 14.9262 185.978 15.3386L186.505 18.326C186.578 18.7385 186.971 19.0139 187.384 18.9412L218.004 13.5419C218.417 13.4692 218.692 13.0759 218.62 12.6634L218.093 9.67599C218.02 9.26352 217.627 8.98811 217.214 9.06084Z" fill="url(#paint14_linear_6751_1619)"/>
<path opacity="0.221842" d="M152.985 20.3857L108.921 28.1554C108.509 28.2282 108.233 28.6215 108.306 29.034L108.833 32.0214C108.905 32.4338 109.299 32.7092 109.711 32.6365L153.775 24.8668C154.188 24.7941 154.463 24.4008 154.391 23.9883L153.864 21.0009C153.791 20.5884 153.398 20.313 152.985 20.3857Z" fill="url(#paint15_linear_6751_1619)"/>
<path opacity="0.5" d="M218.616 38.846L187.995 44.2453C187.582 44.318 187.307 44.7113 187.38 45.1238L187.643 46.6175C187.716 47.03 188.109 47.3054 188.522 47.2327L219.142 41.8334C219.555 41.7607 219.83 41.3673 219.758 40.9549L219.494 39.4612C219.421 39.0487 219.028 38.7733 218.616 38.846Z" fill="url(#paint16_linear_6751_1619)"/>
<path opacity="0.5" d="M156.835 61.0062L126.214 66.4054C125.802 66.4781 125.526 66.8715 125.599 67.284L125.862 68.7777C125.935 69.1901 126.328 69.4655 126.741 69.3928L157.362 63.9935C157.774 63.9208 158.05 63.5275 157.977 63.115L157.713 61.6213C157.641 61.2088 157.247 60.9334 156.835 61.0062Z" fill="url(#paint17_linear_6751_1619)"/>
<path opacity="0.5" d="M220.328 48.555L189.707 53.9542C189.294 54.027 189.019 54.4203 189.092 54.8328L189.355 56.3265C189.428 56.739 189.821 57.0144 190.234 56.9416L220.854 51.5424C221.267 51.4696 221.542 51.0763 221.47 50.6638L221.206 49.1701C221.133 48.7577 220.74 48.4822 220.328 48.555Z" fill="url(#paint18_linear_6751_1619)"/>
<path opacity="0.5" d="M158.547 70.7151L127.926 76.1144C127.514 76.1871 127.238 76.5805 127.311 76.9929L127.574 78.4866C127.647 78.8991 128.04 79.1745 128.453 79.1018L159.074 73.7025C159.486 73.6298 159.761 73.2365 159.689 72.824L159.425 71.3303C159.353 70.9178 158.959 70.6424 158.547 70.7151Z" fill="url(#paint19_linear_6751_1619)"/>
<path opacity="0.5" d="M223.356 65.7327L192.736 71.132C192.323 71.2047 192.048 71.598 192.12 72.0105L192.384 73.5042C192.457 73.9167 192.85 74.1921 193.262 74.1194L223.883 68.7201C224.296 68.6474 224.571 68.254 224.498 67.8416L224.235 66.3479C224.162 65.9354 223.769 65.66 223.356 65.7327Z" fill="url(#paint20_linear_6751_1619)"/>
<path opacity="0.5" d="M225.2 76.1888L194.579 81.588C194.167 81.6608 193.891 82.0541 193.964 82.4666L194.228 83.9603C194.3 84.3727 194.694 84.6482 195.106 84.5754L225.727 79.1762C226.139 79.1034 226.415 78.7101 226.342 78.2976L226.079 76.8039C226.006 76.3915 225.613 76.116 225.2 76.1888Z" fill="url(#paint21_linear_6751_1619)"/>
<path fill-rule="evenodd" clip-rule="evenodd" d="M6.66082 136.668C2.98212 136.668 0 133.686 0 130.007V43.8172C0 40.1393 2.98212 37.1572 6.66082 37.1572H62.5956C117.554 37.1572 177.354 75.6776 192.602 136.668H6.66082Z" fill="url(#paint22_linear_6751_1619)"/>
<path opacity="0.8" fill-rule="evenodd" clip-rule="evenodd" d="M69.7174 87.1063L73.2105 87.3982C73.9407 87.4581 74.4298 88.1757 74.2199 88.8782L74.0641 89.395C73.9822 89.6708 73.8 89.9049 73.5531 90.0526L71.6289 91.2074L73.3593 92.0149L73.9361 91.3227L76.0772 90.9109C76.5848 90.8128 77.0947 91.0655 77.3265 91.5281L77.8584 92.5917H78.8966V94.4109C78.8966 95.1008 78.2956 95.636 77.6092 95.5564L73.9361 95.1296L74.138 96.2036C74.2245 96.6697 74.018 97.1403 73.6177 97.393L70.7845 99.1742C70.4488 99.3853 70.2446 99.7533 70.2446 100.15V101.128H69.5524L68.9906 100.379C68.7033 99.9967 68.2108 99.8306 67.7505 99.9621L66.5969 100.291C66.2762 100.383 66.0108 100.61 65.8689 100.913L65.2841 102.167L66.7837 102.743V104.012L68.5142 104.474L68.6295 105.743H73.3131C73.6362 105.743 73.9453 105.879 74.1634 106.117L74.7471 106.752C74.9651 106.991 75.2731 107.127 75.5973 107.127H76.7047V108.396L78.8043 108.671C79.155 108.716 79.4642 108.917 79.6453 109.221L80.9708 111.43C81.243 111.885 81.1715 112.466 80.7977 112.84L79.8968 113.741C79.6314 114.006 79.5115 114.384 79.5761 114.754L79.8229 116.171C79.8922 116.573 79.7468 116.98 79.4388 117.244L75.3608 120.753C75.1139 120.966 74.9686 121.269 74.9593 121.594L74.8763 124.427C74.8659 124.781 75.062 125.108 75.3793 125.268L75.5246 125.341C75.9353 125.546 76.1291 126.024 75.9757 126.457L75.9065 126.655C75.7196 127.184 75.1059 127.419 74.6144 127.154L73.3593 126.474C73.0144 126.287 72.8286 125.901 72.8967 125.516L73.0282 124.773C73.0893 124.423 72.9428 124.07 72.6533 123.867L72.3626 123.665C72.1192 123.494 71.975 123.216 71.975 122.919V116.91C71.975 116.496 71.7535 116.114 71.3936 115.908L70.2123 115.232C69.8304 115.014 69.6585 114.555 69.805 114.14L70.0415 113.47C70.165 113.121 70.0646 112.734 69.79 112.489L68.4369 111.278C68.1923 111.059 68.0527 110.746 68.0527 110.418V108.973L68.9756 108.742L69.437 107.358L68.7449 106.666L67.5913 107.358L67.4667 106.483C67.4021 106.032 67.0791 105.662 66.6407 105.537L65.7455 105.281V104.705L61.5925 103.666L61.9375 102.918C62.1451 102.469 62.0436 101.937 61.6837 101.597L60.5001 100.475C60.2428 100.232 60.1125 99.8836 60.1448 99.5318L60.5543 95.1296L61.8232 95.0143L62.0055 93.4638C62.0367 93.1985 61.9755 92.9297 61.8302 92.7047L61.3283 91.9237C61.1311 91.618 60.8023 91.4231 60.4401 91.3965L57.7856 91.2074L57.5549 92.5917H56.0587C55.8303 92.5917 55.6088 92.5236 55.4184 92.3979L54.6709 91.8995V90.7332C54.6709 90.2303 55.0793 89.823 55.5811 89.823C56.174 89.823 56.6078 89.2658 56.4648 88.6913L56.3771 88.3453C56.2225 87.7235 56.7393 87.1409 57.3749 87.2205L67.2821 88.471C67.6882 88.5229 68.0908 88.3545 68.34 88.0292L68.7068 87.5527C68.9468 87.2424 69.3274 87.074 69.7174 87.1063ZM139.346 121.547L139.664 121.938C140.063 122.426 139.998 123.142 139.517 123.548L139.084 123.916C138.954 124.026 138.857 124.171 138.804 124.335L138.332 125.818C138.18 126.297 137.736 126.623 137.233 126.623H136.231L135.769 125.469L137.796 123.87C137.905 123.782 137.997 123.677 138.07 123.557L138.653 122.585L139.346 121.547ZM123.887 85.4391C124.184 85.4391 124.469 85.5533 124.682 85.7575L126.335 87.331C126.607 87.5906 126.992 87.7013 127.362 87.6263L131.632 86.7519C131.774 86.7231 131.921 86.7208 132.064 86.7461L137.323 87.6748C137.586 87.7209 137.825 87.8571 137.999 88.0601L138.701 88.878C138.958 89.1791 139.352 89.3268 139.743 89.2691L143.074 88.7823C143.539 88.7142 144 88.9357 144.238 89.3418L144.652 90.0535L141.619 91.8324C141.415 91.9512 141.254 92.1289 141.155 92.3434L139.922 95.014L138.769 94.4372V93.2444C138.769 92.8395 138.556 92.4634 138.208 92.2558L137.615 91.8993L134.616 98.3595H133.693L133.056 99.4912C132.815 99.9192 132.871 100.452 133.197 100.82L133.978 101.705C134.233 101.993 134.326 102.389 134.228 102.762L133.943 103.847C133.86 104.162 133.613 104.41 133.297 104.494L132.772 104.634C132.366 104.742 132.086 105.117 132.097 105.538L132.175 108.407C132.186 108.827 131.968 109.221 131.606 109.433L130.232 110.242L129.54 109.434H128.963L129.078 111.741L127.989 110.652C127.871 110.533 127.779 110.39 127.722 110.234L126.718 107.497C126.607 107.196 126.348 106.975 126.032 106.916L125.451 106.807C125.015 106.725 124.583 106.971 124.429 107.388L123.217 110.689C122.932 111.463 121.951 111.697 121.348 111.136L119.688 109.591C119.427 109.346 119.294 108.993 119.327 108.637L119.422 107.64C119.47 107.13 119.177 106.65 118.702 106.46L117.902 106.141C117.816 106.106 117.735 106.061 117.66 106.008L115.592 104.53C115.435 104.418 115.317 104.26 115.257 104.078L115.109 103.634C114.979 103.244 114.604 102.99 114.195 103.012L112.813 103.089L114.58 105.782C114.938 106.327 114.773 107.062 114.213 107.401L112.005 108.742L110.967 108.396L111.049 107.325C111.071 107.048 110.991 106.774 110.827 106.55L109.121 104.243H108.314L108.229 105.602C108.209 105.913 108.317 106.219 108.527 106.45L109.137 107.121C109.276 107.275 109.359 107.471 109.371 107.676L109.416 108.385C109.446 108.875 109.783 109.292 110.257 109.425L111.814 109.86C112.143 109.953 112.394 110.222 112.461 110.559L112.605 111.278C112.664 111.568 112.575 111.869 112.372 112.084L110.81 113.728C110.614 113.934 110.501 114.207 110.494 114.491L110.405 117.777C110.396 118.12 110.234 118.439 109.967 118.651L108.655 119.686C108.368 119.913 108.205 120.263 108.217 120.63L108.296 123.11C108.308 123.437 108.18 123.753 107.944 123.979L105.626 126.212C105.357 126.469 104.981 126.582 104.616 126.514L102.956 126.207C102.442 126.113 102.056 125.684 102.016 125.162L101.878 123.356C101.861 123.153 101.793 122.958 101.678 122.791L100.83 121.558C100.672 121.328 100.602 121.047 100.635 120.771L101.085 116.893C101.13 116.503 100.921 116.128 100.566 115.962L99.9268 115.665C99.6223 115.522 99.4204 115.222 99.4031 114.885L99.3454 113.732C99.3269 113.353 99.1216 113.007 98.7974 112.807L98.0937 112.373C97.9115 112.262 97.7027 112.203 97.4892 112.203H94.0803C93.8104 112.203 93.5497 112.108 93.342 111.935L91.3094 110.242C91.0464 110.022 90.8941 109.697 90.8941 109.354V107.358L91.5863 106.896L91.8723 104.704C91.9104 104.408 92.0627 104.139 92.2957 103.952L96.2122 100.819C96.4279 100.646 96.699 100.556 96.9747 100.566L99.2173 100.647C99.5611 100.659 99.868 100.864 100.012 101.175L100.32 101.846C100.416 102.052 100.586 102.215 100.794 102.304L102.311 102.942C102.537 103.037 102.79 103.058 103.03 102.999L105.922 102.299C106.257 102.217 106.516 101.954 106.595 101.618L106.704 101.137C106.773 100.843 106.692 100.534 106.485 100.314L105.74 99.5096C105.484 99.2339 105.083 99.1439 104.734 99.2835L104.219 99.4889C103.843 99.64 103.412 99.5235 103.163 99.2028L101.969 97.6673L101.277 98.0134L101.619 98.9836C101.816 99.5454 101.556 100.166 101.015 100.415L100.469 100.667L100.703 100.021C100.844 99.6354 100.769 99.2039 100.506 98.8878L99.7768 98.0134L98.9336 98.5198C98.7317 98.641 98.4975 98.6975 98.2633 98.6813L96.8928 98.5902L96.5467 99.8592H95.4543C95.0171 99.8592 94.6421 99.5477 94.5602 99.1185L94.446 98.5175C94.3388 97.9569 94.769 97.4366 95.3401 97.4366H96.0853L95.5085 96.283L96.083 95.3797C96.233 95.1444 96.4637 94.9702 96.7313 94.8917L97.4489 94.6806C97.9403 94.5364 98.2772 94.0865 98.2772 93.5743V92.5915L98.9901 92.701C99.4642 92.7737 99.8426 93.1313 99.943 93.5997L100.123 94.4372L102.521 93.5812C103.012 93.4059 103.324 92.9225 103.283 92.4023L103.122 90.3996L101.853 90.861L101.507 92.0146H100.32C99.9856 92.0146 99.6788 91.8312 99.5184 91.5359L99.1654 90.8795C99.0408 90.6476 99.0224 90.3742 99.1147 90.1274L99.8449 88.1801C99.9487 87.902 100.158 87.6736 100.425 87.5456L102.466 86.5673C102.738 86.4358 103.052 86.4174 103.338 86.5154L106.929 87.7463H111.313L111.659 88.4385L114.082 87.7463V86.7081L115.632 85.6421C115.825 85.5106 116.052 85.4391 116.285 85.4391H123.887ZM135.077 116.01L135.886 116.356L137.278 119.355C137.347 119.507 137.384 119.672 137.384 119.841V121.483C137.384 121.749 137.293 122.005 137.127 122.211L136.332 123.188C136.057 123.526 135.617 123.681 135.191 123.588L133.434 123.206C133.3 123.177 133.176 123.118 133.067 123.035L132.44 122.546C132.281 122.422 132.083 122.354 131.881 122.354H129.81C129.203 122.354 128.7 121.885 128.658 121.279L128.556 119.796C128.523 119.322 128.785 118.875 129.215 118.673L130.203 118.208C130.374 118.129 130.521 118.008 130.636 117.856L131.227 117.066C131.404 116.832 131.661 116.674 131.949 116.622L133.462 116.356L134.039 117.048L135.077 117.278V116.01ZM112.928 118.086L113.735 118.547L112.928 122.354L112.12 122.817L111.313 121.893V120.04C111.313 119.819 111.376 119.602 111.496 119.416L112.351 118.086H112.928ZM137.385 96.8597L138.422 97.4365L138.829 100.278C138.865 100.53 138.816 100.787 138.691 101.009L137.385 103.32H136.462L136.032 102.532C135.866 102.227 135.846 101.865 135.976 101.544L136.867 99.3595C136.976 99.0873 136.98 98.7839 136.874 98.5105L136.462 97.4365L137.385 96.8597ZM96.7774 91.4379V93.6297L95.5084 94.0911L94.3548 93.8604V92.7068L95.5084 92.5915L95.8545 91.4379H96.7774ZM82.2191 83.1769L85.403 85.1772C85.6684 85.3445 85.8541 85.6121 85.9187 85.9202L86.1967 87.2549C86.3109 87.8051 86.0121 88.3577 85.4884 88.5642L83.5504 89.3256C83.3012 89.4237 83.0935 89.6048 82.9643 89.839L81.4346 92.5915L80.3618 92.2338C80.1576 92.1658 79.9776 92.0423 79.8404 91.8785L78.5806 90.3662C78.4122 90.1643 78.1792 90.0258 77.9208 89.9739L76.0127 89.5921L76.338 88.5342C76.4257 88.2504 76.4003 87.9447 76.2676 87.6783L75.557 86.2593C75.4774 86.099 75.4359 85.9225 75.4359 85.7437V84.7469L81.2835 83.0454C81.5996 82.9542 81.9399 83.0015 82.2191 83.1769Z" fill="url(#paint23_linear_6751_1619)"/>
<path fill-rule="evenodd" clip-rule="evenodd" d="M41.127 37.1572V136.667L6.66082 136.668C2.98212 136.668 0 133.686 0 130.007V43.8172C0 40.1393 2.98212 37.1572 6.66082 37.1572H41.127Z" fill="url(#paint24_linear_6751_1619)"/>
<path fill-rule="evenodd" clip-rule="evenodd" d="M20.815 106.072C23.1696 106.072 25.0784 107.981 25.0784 110.335C25.0784 112.69 23.1696 114.599 20.815 114.599C18.4605 114.599 16.5517 112.69 16.5517 110.335C16.5517 107.981 18.4605 106.072 20.815 106.072ZM20.8889 62.4355C23.3819 62.4355 25.403 64.4566 25.403 66.9497C25.403 67.0075 25.4019 67.0653 25.3996 67.1231L24.2005 98.3C24.1306 100.119 22.6355 101.558 20.815 101.558C18.9946 101.558 17.4995 100.119 17.4296 98.3L16.2304 67.1231C16.1346 64.6319 18.0765 62.5347 20.5677 62.4389L20.6545 62.4364L20.8889 62.4355Z" fill="url(#paint25_linear_6751_1619)"/>
<defs>
<linearGradient id="paint0_linear_6751_1619" x1="149.155" y1="115.887" x2="160.346" y2="77.5051" gradientUnits="userSpaceOnUse">
<stop stop-color="#BEC6CC"/>
<stop offset="1" stop-color="white"/>
</linearGradient>
<linearGradient id="paint1_linear_6751_1619" x1="234.682" y1="64.4554" x2="201.725" y2="18.8413" gradientUnits="userSpaceOnUse">
<stop stop-color="#BEC6CC"/>
<stop offset="1" stop-color="white"/>
</linearGradient>
<linearGradient id="paint2_linear_6751_1619" x1="208.758" y1="12.4553" x2="89.5528" y2="104.179" gradientUnits="userSpaceOnUse">
<stop stop-color="#959EA6"/>
<stop offset="1" stop-color="white"/>
</linearGradient>
<linearGradient id="paint3_linear_6751_1619" x1="150.376" y1="57.783" x2="184.644" y2="51.7406" gradientUnits="userSpaceOnUse">
<stop stop-color="#BEC6CC"/>
<stop offset="1" stop-color="white"/>
</linearGradient>
<linearGradient id="paint4_linear_6751_1619" x1="139.314" y1="-4.95238" x2="173.582" y2="-10.9949" gradientUnits="userSpaceOnUse">
<stop stop-color="#BEC6CC"/>
<stop offset="1" stop-color="white"/>
</linearGradient>
<linearGradient id="paint5_linear_6751_1619" x1="140.697" y1="2.89039" x2="174.965" y2="-3.15198" gradientUnits="userSpaceOnUse">
<stop stop-color="#BEC6CC"/>
<stop offset="1" stop-color="white"/>
</linearGradient>
<linearGradient id="paint6_linear_6751_1619" x1="142.08" y1="10.7322" x2="176.348" y2="4.68978" gradientUnits="userSpaceOnUse">
<stop stop-color="#BEC6CC"/>
<stop offset="1" stop-color="white"/>
</linearGradient>
<linearGradient id="paint7_linear_6751_1619" x1="143.462" y1="18.574" x2="177.73" y2="12.5316" gradientUnits="userSpaceOnUse">
<stop stop-color="#BEC6CC"/>
<stop offset="1" stop-color="white"/>
</linearGradient>
<linearGradient id="paint8_linear_6751_1619" x1="144.844" y1="26.4158" x2="179.113" y2="20.3733" gradientUnits="userSpaceOnUse">
<stop stop-color="#BEC6CC"/>
<stop offset="1" stop-color="white"/>
</linearGradient>
<linearGradient id="paint9_linear_6751_1619" x1="146.227" y1="34.2577" x2="180.496" y2="28.2152" gradientUnits="userSpaceOnUse">
<stop stop-color="#BEC6CC"/>
<stop offset="1" stop-color="white"/>
</linearGradient>
<linearGradient id="paint10_linear_6751_1619" x1="147.61" y1="42.0994" x2="181.878" y2="36.057" gradientUnits="userSpaceOnUse">
<stop stop-color="#BEC6CC"/>
<stop offset="1" stop-color="white"/>
</linearGradient>
<linearGradient id="paint11_linear_6751_1619" x1="148.993" y1="49.9413" x2="183.261" y2="43.8988" gradientUnits="userSpaceOnUse">
<stop stop-color="#BEC6CC"/>
<stop offset="1" stop-color="white"/>
</linearGradient>
<linearGradient id="paint12_linear_6751_1619" x1="208.677" y1="32.7292" x2="208.272" y2="35.3243" gradientUnits="userSpaceOnUse">
<stop stop-color="#BEC6CC"/>
<stop offset="1" stop-color="white"/>
</linearGradient>
<linearGradient id="paint13_linear_6751_1619" x1="168.124" y1="51.6866" x2="155.448" y2="39.6201" gradientUnits="userSpaceOnUse">
<stop stop-color="#BEC6CC"/>
<stop offset="1" stop-color="white"/>
</linearGradient>
<linearGradient id="paint14_linear_6751_1619" x1="213.41" y1="11.7614" x2="211.242" y2="17.4791" gradientUnits="userSpaceOnUse">
<stop stop-color="#BEC6CC"/>
<stop offset="1" stop-color="white"/>
</linearGradient>
<linearGradient id="paint15_linear_6751_1619" x1="149.004" y1="23.2277" x2="144.805" y2="32.0073" gradientUnits="userSpaceOnUse">
<stop stop-color="#BEC6CC"/>
<stop offset="1" stop-color="white"/>
</linearGradient>
<linearGradient id="paint16_linear_6751_1619" x1="210.257" y1="41.6911" x2="209.853" y2="44.2862" gradientUnits="userSpaceOnUse">
<stop stop-color="#BEC6CC"/>
<stop offset="1" stop-color="white"/>
</linearGradient>
<linearGradient id="paint17_linear_6751_1619" x1="169.704" y1="60.6486" x2="157.028" y2="48.582" gradientUnits="userSpaceOnUse">
<stop stop-color="#BEC6CC"/>
<stop offset="1" stop-color="white"/>
</linearGradient>
<linearGradient id="paint18_linear_6751_1619" x1="211.969" y1="51.4001" x2="211.564" y2="53.9952" gradientUnits="userSpaceOnUse">
<stop stop-color="#BEC6CC"/>
<stop offset="1" stop-color="white"/>
</linearGradient>
<linearGradient id="paint19_linear_6751_1619" x1="171.416" y1="70.3575" x2="158.74" y2="58.291" gradientUnits="userSpaceOnUse">
<stop stop-color="#BEC6CC"/>
<stop offset="1" stop-color="white"/>
</linearGradient>
<linearGradient id="paint20_linear_6751_1619" x1="214.998" y1="68.5779" x2="214.593" y2="71.1729" gradientUnits="userSpaceOnUse">
<stop stop-color="#BEC6CC"/>
<stop offset="1" stop-color="white"/>
</linearGradient>
<linearGradient id="paint21_linear_6751_1619" x1="216.842" y1="79.0339" x2="216.437" y2="81.629" gradientUnits="userSpaceOnUse">
<stop stop-color="#BEC6CC"/>
<stop offset="1" stop-color="white"/>
</linearGradient>
<linearGradient id="paint22_linear_6751_1619" x1="184.64" y1="66.5545" x2="84.0949" y2="157.275" gradientUnits="userSpaceOnUse">
<stop stop-color="#BEC6CC"/>
<stop offset="1" stop-color="white"/>
</linearGradient>
<linearGradient id="paint23_linear_6751_1619" x1="91.865" y1="86.8308" x2="92.4643" y2="103.902" gradientUnits="userSpaceOnUse">
<stop stop-color="#BEC6CC"/>
<stop offset="1" stop-color="white"/>
</linearGradient>
<linearGradient id="paint24_linear_6751_1619" x1="19.0576" y1="92.2654" x2="45.8045" y2="82.6117" gradientUnits="userSpaceOnUse">
<stop stop-color="#FDB713"/>
<stop offset="1" stop-color="white"/>
</linearGradient>
<linearGradient id="paint25_linear_6751_1619" x1="20.327" y1="16.5389" x2="36.3179" y2="96.1846" gradientUnits="userSpaceOnUse">
<stop stop-color="#FDB713"/>
<stop offset="1" stop-color="white"/>
</linearGradient>
</defs>
</svg>
