<svg width="41" height="41" viewBox="0 0 41 41" fill="none" xmlns="http://www.w3.org/2000/svg">
<g clip-path="url(#clip0_10094_38777)">
<mask id="mask0_10094_38777" style="mask-type:alpha" maskUnits="userSpaceOnUse" x="0" y="0" width="41" height="41">
<path d="M20.5 40.4878C9.47143 40.4878 0.5 31.5164 0.5 20.4878C0.5 9.45922 9.47143 0.487793 20.5 0.487793C31.5286 0.487793 40.5 9.45922 40.5 20.4878C40.5 31.5164 31.5286 40.4878 20.5 40.4878Z" fill="white"/>
</mask>
<g mask="url(#mask0_10094_38777)">
<path d="M20.5 40.4878C9.47143 40.4878 0.5 31.5164 0.5 20.4878C0.5 9.45922 9.47143 0.487793 20.5 0.487793C31.5286 0.487793 40.5 9.45922 40.5 20.4878C40.5 31.5164 31.5286 40.4878 20.5 40.4878Z" fill="url(#paint0_linear_10094_38777)"/>
<path opacity="0.5" fill-rule="evenodd" clip-rule="evenodd" d="M24.3661 23.3449H13.7779C9.6182 23.3449 6.21484 26.8359 6.21484 31.1371V35.9839C7.16778 36.7491 8.18123 37.4177 9.24005 37.9943C12.173 39.5855 15.5325 40.4878 19.072 40.4878C22.6115 40.4878 25.9695 39.5855 28.9039 37.9943C29.9612 37.4177 30.9762 36.7491 31.9291 35.9839V31.1371C31.9291 26.8359 28.5409 23.3449 24.3661 23.3449Z" fill="url(#paint1_linear_10094_38777)"/>
<path opacity="0.5" fill-rule="evenodd" clip-rule="evenodd" d="M19.0683 7.15375C14.8778 7.15375 11.4492 10.5671 11.4492 14.7728C11.4492 18.9785 14.8778 22.3918 19.0683 22.3918C23.274 22.3918 26.6873 18.9785 26.6873 14.7728C26.6873 10.5671 23.274 7.15375 19.0683 7.15375Z" fill="url(#paint2_linear_10094_38777)"/>
<path fill-rule="evenodd" clip-rule="evenodd" d="M20.0237 8.10684C16.0951 8.10684 12.8809 11.3068 12.8809 15.2497C12.8809 19.1926 16.0951 22.3926 20.0237 22.3926C23.9666 22.3926 27.1666 19.1926 27.1666 15.2497C27.1666 11.3068 23.9666 8.10684 20.0237 8.10684Z" fill="url(#paint3_linear_10094_38777)"/>
<path fill-rule="evenodd" clip-rule="evenodd" d="M25.4964 24.7721H15.4964C11.5678 24.7721 8.35352 27.9721 8.35352 31.9149V36.3578C9.25352 37.0592 10.2107 37.6721 11.2107 38.2007C13.9807 39.6592 17.1535 40.4864 20.4964 40.4864C23.8392 40.4864 27.0107 39.6592 29.7821 38.2007C30.7807 37.6721 31.7392 37.0592 32.6392 36.3578V31.9149C32.6392 27.9721 29.4392 24.7721 25.4964 24.7721Z" fill="url(#paint4_linear_10094_38777)"/>
</g>
</g>
<defs>
<linearGradient id="paint0_linear_10094_38777" x1="-3.30949" y1="-28.4378" x2="27.3105" y2="41.4868" gradientUnits="userSpaceOnUse">
<stop stop-color="#BEC6CC"/>
<stop offset="1" stop-color="white"/>
</linearGradient>
<linearGradient id="paint1_linear_10094_38777" x1="52.2425" y1="27.1278" x2="10.3957" y2="40.9123" gradientUnits="userSpaceOnUse">
<stop stop-color="#8E969C"/>
<stop offset="1" stop-color="white"/>
</linearGradient>
<linearGradient id="paint2_linear_10094_38777" x1="36.3299" y1="18.9767" x2="14.7723" y2="13.2035" gradientUnits="userSpaceOnUse">
<stop stop-color="#969EA4"/>
<stop offset="1" stop-color="white"/>
</linearGradient>
<linearGradient id="paint3_linear_10094_38777" x1="25.1959" y1="16.6921" x2="0.329566" y2="8.10684" gradientUnits="userSpaceOnUse">
<stop stop-color="#959EA6"/>
<stop offset="1" stop-color="white"/>
</linearGradient>
<linearGradient id="paint4_linear_10094_38777" x1="10.789" y1="35.4632" x2="28.6378" y2="21.288" gradientUnits="userSpaceOnUse">
<stop stop-color="#959EA6"/>
<stop offset="1" stop-color="white"/>
</linearGradient>
<clipPath id="clip0_10094_38777">
<rect width="40" height="40" fill="white" transform="translate(0.5 0.487793)"/>
</clipPath>
</defs>
</svg>
