<svg width="73" height="73" fill="none" xmlns="http://www.w3.org/2000/svg"><path fill-rule="evenodd" clip-rule="evenodd" d="M57.392 53.608H18.064a4.267 4.267 0 0 1-4.266-4.257V24.365a4.267 4.267 0 0 1 4.266-4.259h39.328a4.266 4.266 0 0 1 4.266 4.259v24.986a4.266 4.266 0 0 1-4.266 4.257Z" fill="url(#a)"/><path d="M61.658 27.552h-47.86v5.672h47.86v-5.672Z" fill="url(#b)"/><path d="M18.94 41.377h12.407c.49 0 .886.397.886.886v3.9c0 .49-.396.886-.886.886H18.94a.886.886 0 0 1-.886-.886v-3.9c0-.49.397-.886.886-.886Z" fill="url(#c)"/><path d="M18.94 41.377h12.407c.49 0 .886.397.886.886v3.9c0 .49-.396.886-.886.886H18.94a.886.886 0 0 1-.886-.886v-3.9c0-.49.397-.886.886-.886Z" fill="url(#d)"/><path d="M46.591 41.377h9.926c.49 0 .887.397.887.886v3.9c0 .49-.397.886-.887.886h-9.926a.886.886 0 0 1-.886-.886v-3.9c0-.49.397-.886.886-.886Z" fill="url(#e)"/><path d="M46.591 41.377h9.926c.49 0 .887.397.887.886v3.9c0 .49-.397.886-.887.886h-9.926a.886.886 0 0 1-.886-.886v-3.9c0-.49.397-.886.886-.886Z" fill="url(#f)"/><path d="M36.133 41.377h5.85c.489 0 .886.397.886.886v3.9c0 .49-.397.886-.887.886h-5.85a.886.886 0 0 1-.885-.886v-3.9c0-.49.396-.886.886-.886Z" fill="url(#g)"/><path d="M5.365 24.445c0-5.932 4.825-10.758 10.757-10.758 5.931 0 10.757 4.826 10.757 10.758 0 5.93-4.826 10.757-10.757 10.757-5.932 0-10.757-4.827-10.757-10.757Z" fill="url(#h)"/><path fill-rule="evenodd" clip-rule="evenodd" d="M15.795 17.901c.511 0 .926.415.926.926v5.946l3.54 2.04a.926.926 0 0 1-.925 1.604l-4.003-2.307a.926.926 0 0 1-.464-.802v-6.48c0-.512.415-.927.926-.927Z" fill="#000"/><path fill-rule="evenodd" clip-rule="evenodd" d="M15.795 17.901c.511 0 .926.415.926.926v5.946l3.54 2.04a.926.926 0 0 1-.925 1.604l-4.003-2.307a.926.926 0 0 1-.464-.802v-6.48c0-.512.415-.927.926-.927Z" fill="url(#i)"/><path fill-rule="evenodd" clip-rule="evenodd" d="M16.122 15.19c-5.084 0-9.22 4.136-9.22 9.22 0 5.085 4.136 9.221 9.22 9.221 5.084 0 9.22-4.136 9.22-9.22 0-5.085-4.136-9.22-9.22-9.22Zm0 19.978c-5.932 0-10.757-4.826-10.757-10.757 0-5.932 4.825-10.758 10.757-10.758 5.932 0 10.757 4.826 10.757 10.758 0 5.93-4.825 10.757-10.757 10.757Z" fill="url(#j)"/><defs><linearGradient id="a" x1="66.824" y1="57.05" x2="17.878" y2="-6.914" gradientUnits="userSpaceOnUse"><stop stop-color="#CDD4D8"/><stop offset="1" stop-color="#fff"/></linearGradient><linearGradient id="b" x1="72.27" y1="29.669" x2="58.385" y2="48.492" gradientUnits="userSpaceOnUse"><stop stop-color="#BEC6CC"/><stop offset="1" stop-color="#fff"/></linearGradient><linearGradient id="c" x1="26.372" y1="42.662" x2="26.309" y2="44.117" gradientUnits="userSpaceOnUse"><stop stop-color="#BEC6CC"/><stop offset="1" stop-color="#fff"/></linearGradient><linearGradient id="d" x1="26.372" y1="38.846" x2="26.31" y2="43.837" gradientUnits="userSpaceOnUse"><stop stop-color="#BEC6CC"/><stop offset="1" stop-color="#fff"/></linearGradient><linearGradient id="e" x1="52.568" y1="41.935" x2="52.492" y2="44.061" gradientUnits="userSpaceOnUse"><stop stop-color="#BEC6CC"/><stop offset="1" stop-color="#fff"/></linearGradient><linearGradient id="f" x1="52.568" y1="38.846" x2="52.492" y2="43.837" gradientUnits="userSpaceOnUse"><stop stop-color="#BEC6CC"/><stop offset="1" stop-color="#fff"/></linearGradient><linearGradient id="g" x1="39.718" y1="38.846" x2="39.602" y2="43.835" gradientUnits="userSpaceOnUse"><stop stop-color="#BEC6CC"/><stop offset="1" stop-color="#fff"/></linearGradient><linearGradient id="h" x1="8.424" y1="20.738" x2="36.164" y2="46.228" gradientUnits="userSpaceOnUse"><stop stop-color="#FDB713"/><stop offset="1" stop-color="#fff"/></linearGradient><linearGradient id="i" x1="13.776" y1="11.459" x2="21.929" y2="21.036" gradientUnits="userSpaceOnUse"><stop stop-color="#FDB713"/><stop offset="1" stop-color="#fff"/></linearGradient><linearGradient id="j" x1="25.158" y1="15.762" x2="-11.835" y2="43.637" gradientUnits="userSpaceOnUse"><stop stop-color="#FDB713"/><stop offset="1" stop-color="#fff"/></linearGradient></defs></svg>
