<svg xmlns:xlink="http://www.w3.org/1999/xlink" xmlns="http://www.w3.org/2000/svg" viewBox="0 0 24 24" width="33" height="33" fill="currentColor" class="text-grays-500 mx-2" data-v-00d09306="" style="margin-left: 0px;"><path d="M15.75 3a.75.75 0 0 1 .75.75v.75h2.25c1.196 0 2.178.939 2.246 2.118L21 6.75v12a2.253 2.253 0 0 1-2.118 2.246L18.75 21H5.25a2.253 2.253 0 0 1-2.246-2.118L3 18.75v-12c0-1.196.939-2.178 2.118-2.246L5.25 4.5H7.5v-.75a.75.75 0 1 1 1.5 0v.75h6v-.75a.75.75 0 0 1 .75-.75Zm-3 12a.75.75 0 0 0-.745.662L12 15.75v.75a.75.75 0 0 0 1.495.088l.005-.088v-.75a.75.75 0 0 0-.75-.75Zm-3 0a.75.75 0 0 0-.745.662L9 15.75v.75a.75.75 0 0 0 1.495.088l.005-.088v-.75a.75.75 0 0 0-.75-.75Zm-3 0a.75.75 0 0 0-.745.662L6 15.75v.75a.75.75 0 0 0 1.495.088L7.5 16.5v-.75a.75.75 0 0 0-.75-.75Zm9-3.75a.75.75 0 0 0-.745.662L15 12v.75a.75.75 0 0 0 1.495.088l.005-.088V12a.75.75 0 0 0-.75-.75Zm-3 0a.75.75 0 0 0-.745.662L12 12v.75a.75.75 0 0 0 1.495.088l.005-.088V12a.75.75 0 0 0-.75-.75Zm-3 0a.75.75 0 0 0-.745.662L9 12v.75a.75.75 0 0 0 1.495.088l.005-.088V12a.75.75 0 0 0-.75-.75Zm-3 0a.75.75 0 0 0-.745.662L6 12v.75a.75.75 0 0 0 1.495.088l.005-.088V12a.75.75 0 0 0-.75-.75Zm12-5.25H16.5v.75a.75.75 0 1 1-1.5 0V6H9v.75a.75.75 0 1 1-1.5 0V6H5.25a.75.75 0 0 0-.745.663L4.5 6.75v1.5h15v-1.5a.75.75 0 0 0-.75-.75Z" fill="#4B5259"></path></svg>