<svg viewBox="0 0 24 24" width="30px" height="30px" fill="currentColor" class="text-grays-400" data-v-72c47b71=""><path d="M3.75 3C2.23122 3 1 4.23122 1 5.75V7.22763C1 8.05935 1.67424 8.7336 2.50596 8.7336C2.88501 8.7336 3.19229 9.04088 3.19229 9.41993C3.19229 9.79898 2.88501 10.1063 2.50596 10.1063C1.67424 10.1063 1 10.7805 1 11.6122V13.1651C1 14.6838 2.23122 15.9151 3.75 15.9151H7.43401V13.3722C7.32293 13.097 7.05326 12.9027 6.73822 12.9027C6.32401 12.9027 5.98822 13.2385 5.98822 13.6527V14.4151H3.75C3.05964 14.4151 2.5 13.8554 2.5 13.1651V11.6122L2.50013 11.6102L2.50016 11.6101C2.50023 11.61 2.50066 11.6091 2.50175 11.608C2.50283 11.6069 2.5037 11.6065 2.50387 11.6064L2.50397 11.6064L2.50596 11.6063C3.71344 11.6063 4.69229 10.6274 4.69229 9.41993C4.69229 8.21245 3.71344 7.2336 2.50596 7.2336L2.50397 7.23346L2.50387 7.23344C2.5037 7.23336 2.50283 7.23293 2.50175 7.23185C2.50066 7.23076 2.50023 7.22989 2.50016 7.22972L2.50013 7.22963L2.5 7.22763V5.75C2.5 5.05965 3.05965 4.5 3.75 4.5H5.98822V5.18595C5.98822 5.60016 6.32401 5.93595 6.73822 5.93595C7.15243 5.93595 7.48822 5.60016 7.48822 5.18595V4.5H12.5258C13.2161 4.5 13.7758 5.05964 13.7758 5.75V6.15473H15.2758V5.75C15.2758 4.23122 14.0446 3 12.5258 3H3.75ZM7.43401 10.1547C7.43401 9.92987 7.45256 9.70934 7.48822 9.49459V7.83182C7.48822 7.4176 7.15243 7.08182 6.73822 7.08182C6.32401 7.08182 5.98822 7.4176 5.98822 7.83182V11.0069C5.98822 11.4211 6.32401 11.7569 6.73822 11.7569C7.05326 11.7569 7.32293 11.5626 7.43401 11.2874V10.1547ZM8.72712 10.1552C8.72712 8.63639 9.95834 7.40517 11.4771 7.40517H20.2529C21.7717 7.40517 23.0029 8.63639 23.0029 10.1552V11.6325C23.0029 12.4644 22.3285 13.1389 21.4965 13.1389C21.1174 13.1389 20.8102 13.4462 20.8102 13.8252C20.8102 14.2043 21.1174 14.5115 21.4965 14.5115C22.3285 14.5115 23.0029 15.186 23.0029 16.018V17.5702C23.0029 19.089 21.7717 20.3202 20.2529 20.3202H11.4771C9.95834 20.3202 8.72712 19.089 8.72712 17.5702V16.0174C8.72712 15.1857 9.40132 14.5115 10.233 14.5115C10.612 14.5115 10.9193 14.2043 10.9193 13.8252C10.9193 13.4462 10.612 13.1389 10.233 13.1389C9.40132 13.1389 8.72712 12.4647 8.72712 11.633V10.1552ZM10.233 11.6389C11.4405 11.6389 12.4193 12.6177 12.4193 13.8252C12.4193 15.0327 11.4405 16.0115 10.233 16.0115L10.231 16.0117L10.2309 16.0117C10.2308 16.0118 10.2299 16.0122 10.2288 16.0133C10.2278 16.0143 10.2273 16.0152 10.2273 16.0153L10.2273 16.0154L10.2271 16.0174V17.5702C10.2271 18.2606 10.7868 18.8202 11.4771 18.8202H13.7167V18.0581C13.7167 17.6438 14.0525 17.3081 14.4667 17.3081C14.8809 17.3081 15.2167 17.6438 15.2167 18.0581V18.8202H20.2529C20.9433 18.8202 21.5029 18.2606 21.5029 17.5702V16.018L21.5028 16.0159L21.5027 16.0157C21.5026 16.0155 21.5022 16.0145 21.501 16.0134L21.4996 16.0122L21.4988 16.0117L21.4986 16.0117L21.4965 16.0115C20.289 16.0115 19.3102 15.0327 19.3102 13.8252C19.3102 12.6177 20.289 11.6389 21.4965 11.6389L21.4986 11.6387L21.4988 11.6387L21.4996 11.6382L21.501 11.637L21.5023 11.6355L21.5027 11.6347L21.5028 11.6345L21.5029 11.6325V10.1552C21.5029 9.46482 20.9433 8.90517 20.2529 8.90517H15.2167V9.59126C15.2167 10.0055 14.8809 10.3413 14.4667 10.3413C14.0525 10.3413 13.7167 10.0055 13.7167 9.59126V8.90517H11.4771C10.7868 8.90517 10.2271 9.46482 10.2271 10.1552V11.633L10.2273 11.635L10.2273 11.6351C10.2273 11.6352 10.2278 11.6361 10.2288 11.6372C10.2299 11.6382 10.2308 11.6387 10.2309 11.6387L10.231 11.6387L10.233 11.6389ZM14.4667 11.4871C14.8809 11.4871 15.2167 11.8229 15.2167 12.2371V15.4122C15.2167 15.8264 14.8809 16.1622 14.4667 16.1622C14.0525 16.1622 13.7167 15.8264 13.7167 15.4122V12.2371C13.7167 11.8229 14.0525 11.4871 14.4667 11.4871Z" fill-rule="evenodd"></path></svg>