<svg xmlns:xlink="http://www.w3.org/1999/xlink" xmlns="http://www.w3.org/2000/svg" viewBox="0 0 24 24" width="40" height="40" fill="currentColor" class="ml-2 align-middle" data-v-67ca444e="" style="margin-left: 0px;"><path d="M12 1.5c5.799 0 10.5 4.701 10.5 10.5S17.799 22.5 12 22.5 1.5 17.799 1.5 12 6.201 1.5 12 1.5ZM12 3a9 9 0 1 0 0 18 9 9 0 0 0 0-18Zm0 6a.75.75 0 0 1 .745.663l.005.087v7.5a.75.75 0 0 1-1.495.087l-.005-.087v-7.5A.75.75 0 0 1 12 9Zm0-3a.75.75 0 0 1 .745.663l.005.087v.75a.75.75 0 0 1-1.495.087L11.25 7.5v-.75A.75.75 0 0 1 12 6Z" fill="#6C7680"></path></svg>